<?xml version="1.0" encoding="UTF-8"?>
<svg version="1.1" xmlns="http://www.w3.org/2000/svg" width="475" height="525">
<path d="M0 0 C0.825 -0.02449219 1.65 -0.04898438 2.5 -0.07421875 C8.38422637 -0.10223888 11.76044224 1.05766008 16.625 4.375 C16.625 5.035 16.625 5.695 16.625 6.375 C17.4603125 6.6534375 17.4603125 6.6534375 18.3125 6.9375 C21.77804682 9.09175883 23.85257999 11.70355854 25.625 15.375 C26.29509409 18.71090319 26.54978681 21.97673152 26.625 25.375 C27.19605469 25.41238281 27.76710938 25.44976563 28.35546875 25.48828125 C46.00337543 26.9191926 62.28504924 32.67192339 76.6875 42.9375 C78.32933865 44.08904993 79.97489808 45.2353224 81.625 46.375 C82.25792969 46.81585938 82.89085937 47.25671875 83.54296875 47.7109375 C89.74648152 51.44098143 96.59860686 51.10100499 103.625 50.375 C106.22984187 49.61777853 108.21591294 48.65984643 110.625 47.375 C111.615 47.375 112.605 47.375 113.625 47.375 C113.625 46.715 113.625 46.055 113.625 45.375 C123.0028807 37.11895923 131.09563376 33.79078296 143.5 34.1640625 C158.9405745 35.20630128 172.21103103 44.31015796 182.625 55.375 C182.955 55.705 183.285 56.035 183.625 56.375 C183.69726502 58.22787502 183.7088122 60.08333878 183.6875 61.9375 C183.67847656 62.94941406 183.66945313 63.96132813 183.66015625 65.00390625 C183.64275391 66.17759766 183.64275391 66.17759766 183.625 67.375 C182.965 67.375 182.305 67.375 181.625 67.375 C181.295 68.365 180.965 69.355 180.625 70.375 C178.92522669 71.3883264 177.21983895 72.39501892 175.47265625 73.32421875 C173.37981956 74.45045508 173.37981956 74.45045508 170.8125 76.625 C168.625 78.375 168.625 78.375 166.625 78.375 C166.625 79.035 166.625 79.695 166.625 80.375 C165.965 80.375 165.305 80.375 164.625 80.375 C164.34785156 81.12136719 164.07070313 81.86773437 163.78515625 82.63671875 C162.73253906 85.12117886 161.62241563 87.00539579 160.0625 89.1875 C156.68287825 94.11611505 153.81233651 99.28143301 150.96069336 104.52661133 C148.46755657 109.05984123 145.81238594 113.29132749 142.625 117.375 C141.965 117.375 141.305 117.375 140.625 117.375 C140.625 118.035 140.625 118.695 140.625 119.375 C126.72721747 132.43634192 109.26229832 135.3069397 90.82421875 134.78125 C84.3598129 134.41407457 78.60476936 132.90229875 72.625 130.375 C72.625 129.715 72.625 129.055 72.625 128.375 C71.944375 128.25125 71.26375 128.1275 70.5625 128 C67.625 127.375 67.625 127.375 64.40234375 126.35546875 C55.02088007 123.92036287 45.5077949 124.63487583 36.625 128.375 C36.625 129.035 36.625 129.695 36.625 130.375 C35.8825 131.096875 35.14 131.81875 34.375 132.5625 C30.36129028 136.66743039 27.88743936 140.24799847 27.18676758 145.92675781 C27.21407959 147.21420898 27.2413916 148.50166016 27.26953125 149.828125 C27.27810654 150.56907913 27.28668182 151.31003326 27.29551697 152.07344055 C27.3158099 153.71543626 27.34486945 155.35734079 27.38146973 156.99905396 C27.48178836 161.70064288 27.50151793 166.40301305 27.53515625 171.10546875 C27.54909927 172.70291176 27.54909927 172.70291176 27.56332397 174.33262634 C27.67615427 188.64798638 27.58878694 202.96241216 27.44590855 217.27725029 C27.40373377 221.52319494 27.3690027 225.76888271 27.35317993 230.01501465 C27.33802954 234.0783862 27.30406754 238.14118823 27.25650215 242.20430565 C27.24196267 243.71534504 27.23398444 245.2264645 27.23316765 246.73757362 C27.22264686 255.9730753 27.19140566 265.18680404 20.77679443 272.47486877 C14.70955215 278.33045722 8.12919278 281.53992641 -0.3125 281.875 C-6.25909741 281.69179289 -11.08190645 279.99812601 -16.375 277.375 C-16.375 276.715 -16.375 276.055 -16.375 275.375 C-16.931875 275.189375 -17.48875 275.00375 -18.0625 274.8125 C-22.79497476 271.87069137 -25.75893928 266.6198516 -27.375 261.375 C-27.51260722 258.56506055 -27.56511573 255.86498076 -27.5 253.0625 C-27.49097656 252.32193359 -27.48195313 251.58136719 -27.47265625 250.81835938 C-27.44924213 249.00376533 -27.41337615 247.18933929 -27.375 245.375 C-28.23222656 245.78492188 -29.08945312 246.19484375 -29.97265625 246.6171875 C-31.68775391 247.42542969 -31.68775391 247.42542969 -33.4375 248.25 C-34.56285156 248.78367188 -35.68820313 249.31734375 -36.84765625 249.8671875 C-44.62575814 253.19204612 -51.32733484 253.71224886 -59.6875 253.6875 C-61.30301758 253.71166992 -61.30301758 253.71166992 -62.95117188 253.73632812 C-72.73107959 253.74225175 -79.99076621 251.6655545 -88.68481445 247.2590332 C-89.75383499 246.71890091 -90.82285553 246.17876862 -91.92427063 245.62226868 C-92.73301132 245.21067001 -93.54175201 244.79907135 -94.375 244.375 C-94.49166574 254.77274827 -94.5801022 265.1703368 -94.63406086 275.56861019 C-94.65997915 280.39876118 -94.6950455 285.2284592 -94.75219727 290.05834961 C-94.80715979 294.7333314 -94.83655349 299.40788196 -94.84938622 304.08316231 C-94.85851239 305.85268491 -94.87632762 307.62218818 -94.90365028 309.39152336 C-95.07360838 320.87070817 -93.76277187 330.5977465 -90.0077877 341.46034431 C-88.94171797 344.68600193 -88.10709161 347.9631059 -87.25 351.25 C-85.18410735 359.12964363 -83.03158101 366.98463511 -80.875 374.83984375 C-80.375 376.6640625 -79.875 378.48828125 -79.375 380.3125 C-79.00375 381.66118164 -79.00375 381.66118164 -78.625 383.03710938 C-77.32750872 387.777683 -76.07983243 392.52498819 -74.90234375 397.296875 C-73.37335717 403.46405281 -71.671525 409.57528823 -69.9375 415.6875 C-68.01243682 422.5087124 -66.10220327 429.32947738 -64.3125 436.1875 C-62.7997737 441.93975538 -61.10814112 447.62400873 -59.375 453.3125 C-57.1247497 460.70297992 -55.13234281 468.1103359 -53.3125 475.6171875 C-52.07987485 480.55795996 -50.66749513 485.4389467 -49.24609375 490.328125 C-48.55267785 492.75352592 -47.90566085 495.17392212 -47.3125 497.625 C-46.79993494 499.67526023 -46.2591457 501.72198652 -45.58984375 503.7265625 C-43.72567277 509.32774599 -41.80920953 515.50328573 -43.375 521.375 C-45.59426769 523.98759394 -47.43322756 525.23439326 -50.84951782 525.7444458 C-54.01190276 525.88893158 -57.15083254 525.90281845 -60.31640625 525.87109375 C-61.4762352 525.87254898 -62.63606415 525.87400421 -63.83103943 525.87550354 C-66.27955644 525.87384553 -68.72808397 525.86229533 -71.17651367 525.84155273 C-74.92736979 525.81257825 -78.67681429 525.82095095 -82.42773438 525.83398438 C-84.80729854 525.82774752 -87.18685825 525.81935701 -89.56640625 525.80859375 C-90.68938614 525.81152939 -91.81236603 525.81446503 -92.96937561 525.81748962 C-94.01403488 525.80480545 -95.05869415 525.79212128 -96.13500977 525.77905273 C-97.0525856 525.77364975 -97.97016144 525.76824677 -98.9155426 525.76268005 C-101.85013685 525.30010499 -103.2115244 524.37791661 -105.375 522.375 C-107.35669439 518.48652063 -108.18825877 514.29332989 -109.1875 510.0625 C-110.54874499 504.42528317 -112.09348785 498.89345896 -113.875 493.375 C-115.8040201 487.38314648 -117.43998178 481.3689148 -118.92138672 475.25195312 C-120.27730166 469.67411826 -121.82765438 464.16430906 -123.4453125 458.65625 C-124.27626971 455.72345984 -125.02854389 452.78040636 -125.75878906 449.82128906 C-127.17508866 444.19873679 -128.69168285 438.60182096 -130.1875 433 C-130.36552155 432.33270874 -130.54354309 431.66541748 -130.72695923 430.97790527 C-133.35833338 421.11870643 -136.03391035 411.27323303 -138.79394531 401.44921875 C-139.41626365 399.22769917 -140.03298989 397.00468252 -140.6484375 394.78125 C-140.86193848 394.01039063 -141.07543945 393.23953125 -141.29541016 392.4453125 C-141.71765197 390.91946225 -142.13922088 389.3934256 -142.56005859 387.8671875 C-143.53363345 384.34895369 -144.52662515 380.83955605 -145.578125 377.34375 C-145.94421875 376.1165625 -146.3103125 374.889375 -146.6875 373.625 C-147.01363281 372.55765625 -147.33976563 371.4903125 -147.67578125 370.390625 C-148.39651141 367.28222452 -148.50349726 364.5541173 -148.375 361.375 C-149.035 361.375 -149.695 361.375 -150.375 361.375 C-150.33117187 362.2 -150.28734375 363.025 -150.2421875 363.875 C-150.39618426 367.93326744 -151.35028808 371.51279411 -152.5 375.375 C-152.96170184 376.97894685 -153.42260329 378.58312425 -153.8828125 380.1875 C-154.12676758 381.03054688 -154.37072266 381.87359375 -154.62207031 382.7421875 C-155.91811383 387.27413734 -157.14286768 391.82534344 -158.375 396.375 C-160.23541874 403.21239573 -162.10499708 410.0471021 -164 416.875 C-164.20423584 417.61089355 -164.40847168 418.34678711 -164.61889648 419.10498047 C-165.86435716 423.57816354 -167.14392646 428.04044298 -168.4375 432.5 C-169.84616928 437.39089976 -171.11189284 442.30474152 -172.3125 447.25 C-173.63209134 452.67949357 -175.15434267 457.99695624 -176.875 463.3125 C-178.59016073 468.62517325 -180.0343572 473.92671002 -181.25 479.375 C-183.55018259 489.66484119 -186.60519476 499.73481967 -189.62426758 509.83251953 C-190.2696212 512.01811713 -190.88478861 514.20885891 -191.48828125 516.40625 C-192.49942678 519.79158304 -193.84350005 522.84350005 -196.375 525.375 C-198.03567637 525.49461595 -199.7013874 525.54514258 -201.36621094 525.56787109 C-202.43111755 525.58393402 -203.49602417 525.59999695 -204.59320068 525.61654663 C-209.47781883 525.66084896 -214.3622983 525.70207389 -219.24707031 525.72509766 C-221.82528716 525.74165382 -224.40345817 525.76893892 -226.98144531 525.80712891 C-230.69099848 525.86183506 -234.39947299 525.88376479 -238.109375 525.8984375 C-239.2616156 525.92110687 -240.4138562 525.94377625 -241.60101318 525.96713257 C-250.51260581 525.94356133 -250.51260581 525.94356133 -253.60668945 522.97119141 C-255.33872804 520.42825362 -256.00060132 519.38462116 -255.8125 516.375 C-255.79058594 515.735625 -255.76867187 515.09625 -255.74609375 514.4375 C-255.375 512.375 -255.375 512.375 -254.46484375 510.125 C-253.0774796 506.62426753 -252.30885359 503.04073434 -251.5 499.375 C-250.05829262 493.03433299 -248.34738967 486.86209563 -246.37109375 480.6640625 C-245.27125969 477.03245357 -244.33639833 473.37253369 -243.4375 469.6875 C-240.6952369 458.45863995 -237.52926838 447.35100459 -234.3125 436.25 C-232.90383072 431.35910024 -231.63810716 426.44525848 -230.4375 421.5 C-229.11791253 416.07052235 -227.59584654 410.75297471 -225.875 405.4375 C-224.15135542 400.10438669 -222.71378808 394.78362385 -221.5 389.3125 C-219.95367249 382.36864483 -217.98657289 375.60473539 -215.875 368.8125 C-213.46162326 361.04835861 -211.21591914 353.30623411 -209.37767029 345.38562012 C-208.79337434 342.95380642 -208.13358402 340.64681663 -207.34442139 338.26646423 C-203.37382734 325.90907773 -203.7701203 313.49649029 -203.765625 300.62890625 C-203.75061971 298.16168648 -203.7338877 295.69447666 -203.71551514 293.22727966 C-203.67209348 286.78139751 -203.65189855 280.33565081 -203.63677979 273.88964844 C-203.61711746 267.29288812 -203.57515802 260.69627216 -203.53515625 254.09960938 C-203.46012721 241.19145547 -203.4089118 228.28332415 -203.375 215.375 C-204.50518555 215.18055298 -204.50518555 215.18055298 -205.65820312 214.98217773 C-209.42194945 214.14101696 -212.5342916 212.29410124 -215.875 210.4375 C-222.40741337 206.88795972 -229.01755814 203.59025933 -235.75 200.4375 C-242.82072365 197.10971786 -249.82320895 193.68124752 -256.75 190.0625 C-257.51618652 189.66619385 -258.28237305 189.2698877 -259.07177734 188.86157227 C-265.24986297 185.59988834 -271.29995991 182.12945214 -275.8125 176.6875 C-276.30621094 176.10613281 -276.79992187 175.52476562 -277.30859375 174.92578125 C-278.375 173.375 -278.375 173.375 -278.375 171.375 C-279.035 171.375 -279.695 171.375 -280.375 171.375 C-291.79084531 155.63964565 -293.48869159 137.18590088 -291.375 118.375 C-289.59774368 110.75068218 -286.30111708 103.76545607 -282.94580078 96.72509766 C-281.22304248 93.05091529 -279.61394854 89.33985951 -278.02734375 85.60546875 C-277.45672109 84.26550242 -276.88600179 82.92557724 -276.31518555 81.58569336 C-276.03411957 80.92584442 -275.75305359 80.26599548 -275.46347046 79.58615112 C-272.15657263 71.85144047 -268.75653185 64.16174859 -265.20703125 56.53515625 C-262.91395303 51.59869967 -260.80738932 46.62495043 -258.8125 41.5625 C-256.47876766 35.78031055 -254.12373885 30.40902074 -250.375 25.375 C-249.715 25.375 -249.055 25.375 -248.375 25.375 C-248.14683594 24.77042969 -247.91867188 24.16585938 -247.68359375 23.54296875 C-245.99868928 20.75155985 -244.37138648 20.05320046 -241.4375 18.6875 C-240.56222656 18.27113281 -239.68695313 17.85476562 -238.78515625 17.42578125 C-230.99164022 14.02795984 -223.03248599 14.47627133 -215.125 17.375 C-213.53366093 18.02232437 -211.94692722 18.68186674 -210.375 19.375 C-210.375 20.035 -210.375 20.695 -210.375 21.375 C-209.7975 21.6225 -209.22 21.87 -208.625 22.125 C-202.38525666 25.59152408 -200.58688911 30.8950995 -198.375 37.375 C-195.77620872 46.58117563 -198.69287497 54.92380888 -202.50390625 63.35546875 C-203.66013838 66.03606072 -204.66284305 68.76649024 -205.6875 71.5 C-207.42080398 76.04927232 -209.30092808 80.47092956 -211.375 84.875 C-213.89492621 90.23064881 -216.07671673 95.64941156 -218.16015625 101.1875 C-219.34485827 104.2959143 -220.59221041 107.36839592 -221.875 110.4375 C-222.48408203 111.89929688 -222.48408203 111.89929688 -223.10546875 113.390625 C-223.98236486 115.4520054 -224.88234321 117.5036649 -225.80078125 119.546875 C-229.33797492 127.19285565 -229.33797492 127.19285565 -229.375 135.375 C-227.46176027 137.97153964 -226.18045009 139.10651664 -223.125 140.125 C-222.5475 140.2075 -221.97 140.29 -221.375 140.375 C-221.375 141.035 -221.375 141.695 -221.375 142.375 C-220.72402344 142.44847656 -220.07304687 142.52195313 -219.40234375 142.59765625 C-215.20028905 143.67663546 -211.71473851 145.7154927 -207.9375 147.8125 C-203.16182359 150.45267744 -198.64948068 152.84531701 -193.375 154.375 C-194.1175 153.323125 -194.86 152.27125 -195.625 151.1875 C-202.72641072 139.86962667 -205.09469205 125.48501035 -202.19726562 112.5390625 C-199.2530357 100.4011644 -194.73528594 91.01809311 -185.375 82.375 C-184.715 82.375 -184.055 82.375 -183.375 82.375 C-183.375 81.715 -183.375 81.055 -183.375 80.375 C-180.19935819 78.12192607 -176.76665663 76.28312658 -173.375 74.375 C-172.364375 73.7975 -171.35375 73.22 -170.3125 72.625 C-159.1253694 67.8645189 -142.92612842 67.20375918 -131.375 71.375 C-128.32288909 72.6090325 -125.33462001 73.93367205 -122.375 75.375 C-122.375 76.035 -122.375 76.695 -122.375 77.375 C-121.776875 77.49875 -121.17875 77.6225 -120.5625 77.75 C-118.375 78.375 -118.375 78.375 -115.375 80.375 C-115.375 81.035 -115.375 81.695 -115.375 82.375 C-114.48941406 82.76558594 -114.48941406 82.76558594 -113.5859375 83.1640625 C-104.33480368 88.23093791 -99.51178275 100.19392295 -96.5 109.75 C-92.55382291 126.07495881 -97.02889068 140.4334322 -105.1875 154.5 C-105.579375 155.11875 -105.97125 155.7375 -106.375 156.375 C-105.54613281 156.3853125 -104.71726563 156.395625 -103.86328125 156.40625 C-98.73645939 157.83004823 -96.14992185 161.07307423 -92.5625 164.875 C-91.8305542 165.62587891 -91.0986084 166.37675781 -90.34448242 167.15039062 C-87.21858038 170.35794806 -84.12308107 173.59428557 -81.02441406 176.828125 C-78.7556717 179.18723655 -76.47212292 181.53128116 -74.1875 183.875 C-73.49358154 184.61041016 -72.79966309 185.34582031 -72.0847168 186.10351562 C-69.09460362 189.1683543 -67.18448806 191.12499275 -63.03833008 192.40551758 C-57.98871126 192.34765688 -55.31018765 189.39835123 -51.89453125 186.01953125 C-50.65377042 184.74712508 -49.41819993 183.46963985 -48.1875 182.1875 C-46.94867266 180.89784898 -45.70540242 179.61244617 -44.45703125 178.33203125 C-43.91280518 177.76460205 -43.3685791 177.19717285 -42.80786133 176.61254883 C-41.375 175.375 -41.375 175.375 -39.375 175.375 C-39.1171875 174.79234375 -38.859375 174.2096875 -38.59375 173.609375 C-37.27665983 171.1947097 -35.82411616 169.55759823 -33.875 167.625 C-33.2665625 167.01140625 -32.658125 166.3978125 -32.03125 165.765625 C-30.375 164.375 -30.375 164.375 -28.375 164.375 C-28.37445523 163.63692675 -28.37391047 162.89885349 -28.37334919 162.13841438 C-28.35835943 144.15086605 -28.31582403 126.16357397 -28.24290943 108.17616463 C-28.20830699 99.47744081 -28.18291015 90.77887468 -28.17944336 82.08007812 C-28.17639684 74.49514333 -28.1558143 66.91048971 -28.11447543 59.32566345 C-28.09320579 55.31223131 -28.08051349 51.29919829 -28.08884621 47.28570938 C-28.09642499 43.50158376 -28.08041045 39.71826427 -28.04693985 35.93428612 C-28.03487262 33.89658498 -28.04724571 31.85878405 -28.06056213 29.8210907 C-27.94799804 20.73643402 -26.25149038 13.95630681 -20.3125 6.9375 C-19.673125 6.421875 -19.03375 5.90625 -18.375 5.375 C-17.735625 4.83875 -17.09625 4.3025 -16.4375 3.75 C-11.07935571 0.17790381 -6.26522237 0.00969849 0 0 Z M-7.375 22.375 C-8.44019195 25.42014971 -8.49855412 28.28039374 -8.49525452 31.48760986 C-8.49662918 32.51963531 -8.49800385 33.55166077 -8.49942017 34.61495972 C-8.49582489 35.74136871 -8.49222961 36.86777771 -8.48852539 38.02832031 C-8.48867142 39.21884003 -8.48881744 40.40935974 -8.4889679 41.63595581 C-8.48839086 44.89596274 -8.48337765 48.15592667 -8.47639394 51.41592503 C-8.47014008 54.824543 -8.46955499 58.23316184 -8.46836853 61.64178467 C-8.46526121 68.09444884 -8.45705589 74.54709605 -8.44701904 80.99975276 C-8.43583931 88.34674087 -8.43034276 95.69372978 -8.42532361 103.04072428 C-8.41487279 118.1521592 -8.39708335 133.26357727 -8.375 148.375 C-3.095 148.375 2.185 148.375 7.625 148.375 C7.76391343 132.16344566 7.87097673 115.95213683 7.93587303 99.74013233 C7.96680697 92.21253508 8.00897775 84.68531447 8.07763672 77.15795898 C8.13745399 70.59682406 8.17615254 64.0359619 8.18953097 57.47456187 C8.19735117 54.00041128 8.21571804 50.52704102 8.25938034 47.05314064 C8.30773571 43.1743575 8.30893834 39.29633662 8.30615234 35.41723633 C8.327724 34.26637039 8.34929565 33.11550446 8.371521 31.92976379 C8.45199173 26.44119032 8.45199173 26.44119032 6.38408279 21.52371788 C1.19425234 16.83658738 -2.69470586 17.82120029 -7.375 22.375 Z M-232.375 35.375 C-232.375 36.035 -232.375 36.695 -232.375 37.375 C-233.035 37.375 -233.695 37.375 -234.375 37.375 C-235.54907021 39.64227333 -236.71439739 41.91334624 -237.875 44.1875 C-238.20886719 44.83009766 -238.54273438 45.47269531 -238.88671875 46.13476562 C-240.37739084 49.07047699 -241.375 51.03626517 -241.375 54.375 C-242.035 54.375 -242.695 54.375 -243.375 54.375 C-243.375 56.025 -243.375 57.675 -243.375 59.375 C-244.035 59.375 -244.695 59.375 -245.375 59.375 C-245.65472656 60.1278125 -245.93445313 60.880625 -246.22265625 61.65625 C-250.30866783 72.48220994 -254.9187269 83.05031611 -259.75 93.5625 C-262.24536092 99.03727179 -264.66349227 104.54497268 -267.0625 110.0625 C-267.45550293 110.95412842 -267.84850586 111.84575684 -268.25341797 112.7644043 C-273.57949781 125.08827841 -275.05646294 135.20494424 -270.69140625 148.1328125 C-266.54829089 158.33692451 -260.05367503 167.01273993 -249.734375 171.53125 C-247.62449194 172.24781406 -245.54456681 172.87191204 -243.375 173.375 C-243.375 174.035 -243.375 174.695 -243.375 175.375 C-241.91900391 175.98794922 -241.91900391 175.98794922 -240.43359375 176.61328125 C-236.05177159 178.49246169 -231.74360916 180.51681096 -227.4375 182.5625 C-226.60847168 182.95614746 -225.77944336 183.34979492 -224.92529297 183.75537109 C-213.44412331 189.22708892 -202.09026168 194.89068397 -190.94921875 201.02734375 C-188.36749332 202.46630625 -188.36749332 202.46630625 -185.375 203.375 C-184.2535935 206.28651075 -184.23738097 209.15587321 -184.2076416 212.25018311 C-184.19615082 213.23069641 -184.18466003 214.21120972 -184.17282104 215.22143555 C-184.16541901 216.29143799 -184.15801697 217.36144043 -184.15039062 218.46386719 C-184.13330551 220.16255951 -184.13330551 220.16255951 -184.11587524 221.89556885 C-184.01786613 232.39611407 -183.96679544 242.89726548 -183.93018341 253.3982048 C-183.90280797 261.13155146 -183.85246209 268.86396143 -183.76970911 276.59691882 C-183.71325402 282.06313597 -183.68485182 287.52910496 -183.6757102 292.99560285 C-183.66954576 296.24300872 -183.6485284 299.4890882 -183.60432434 302.73622894 C-183.39172321 319.22382164 -185.18758341 333.22728659 -190.55337524 348.8411026 C-191.80270831 352.6940559 -192.70087765 356.60784281 -193.5625 360.5625 C-194.90881327 366.59101062 -196.5365714 372.47157311 -198.4453125 378.34765625 C-199.93838988 383.20956787 -201.08037596 388.1501874 -202.26953125 393.09375 C-203.92992549 399.93316117 -205.71927276 406.67434305 -207.875 413.375 C-209.77357931 419.28025124 -211.39293074 425.20295646 -212.85546875 431.22998047 C-214.10209216 436.34736956 -215.45876512 441.4269919 -216.875 446.5 C-217.08697021 447.25966064 -217.29894043 448.01932129 -217.51733398 448.80200195 C-218.79443583 453.35606563 -220.11136811 457.89744848 -221.4375 462.4375 C-223.10337173 468.21474316 -224.47119346 474.02803608 -225.79614258 479.88964844 C-227.1565186 485.76433367 -228.88091686 491.48357629 -230.80053711 497.19873047 C-231.88745557 500.49322516 -232.375 502.84936699 -232.375 506.375 C-224.785 506.375 -217.195 506.375 -209.375 506.375 C-208.44378052 503.33991428 -207.5126701 500.30479506 -206.58203125 497.26953125 C-205.7833129 494.67811938 -204.96722036 492.09311317 -204.13671875 489.51171875 C-201.77403778 482.13729027 -199.64815068 474.76156255 -197.82421875 467.23510742 C-196.77431544 462.91536916 -195.61857033 458.64281723 -194.375 454.375 C-192.95266625 449.48261466 -191.650362 444.57287052 -190.4375 439.625 C-188.82331367 433.04735085 -187.05639339 426.52185312 -185.22631836 420.0012207 C-183.94859924 415.44712384 -182.7053039 410.88647378 -181.5 406.3125 C-179.39693422 398.37043453 -177.16569269 390.46536781 -174.94189453 382.55639648 C-173.06258568 375.8619255 -171.23942244 369.15756969 -169.46875 362.43359375 C-167.99834139 356.91812551 -166.42512289 351.43095359 -164.875 345.9375 C-162.202138 336.4549162 -159.67372123 326.95538477 -157.375 317.375 C-156.715 317.375 -156.055 317.375 -155.375 317.375 C-155.375 316.715 -155.375 316.055 -155.375 315.375 C-153.43664034 315.43510418 -151.49915509 315.52391717 -149.5625 315.625 C-148.48355469 315.67140625 -147.40460938 315.7178125 -146.29296875 315.765625 C-143.375 316.375 -143.375 316.375 -141.59765625 318.00390625 C-140.06093186 320.98407143 -139.36295909 323.78693632 -138.625 327.0625 C-136.95500402 334.18103502 -135.05695437 341.21571284 -133.0625 348.25 C-130.53114397 357.21544808 -128.04784331 366.19208443 -125.625 375.1875 C-125.34358154 376.2295459 -125.06216309 377.2715918 -124.7722168 378.34521484 C-123.40035241 383.45239404 -122.06952368 388.56636189 -120.796875 393.69921875 C-118.89836418 401.33929408 -116.62915288 408.83210115 -114.23046875 416.32617188 C-111.98519692 423.42701621 -110.31901949 430.61067791 -108.6875 437.875 C-106.84496239 445.86259657 -104.57356475 453.69753143 -102.23486328 461.55200195 C-99.29829502 471.47716555 -96.64835703 481.47164286 -94.04003906 491.48706055 C-93.72131836 492.70176025 -93.40259766 493.91645996 -93.07421875 495.16796875 C-92.79408936 496.2458667 -92.51395996 497.32376465 -92.2253418 498.43432617 C-91.31516079 501.76350254 -91.31516079 501.76350254 -89.375 506.375 C-81.785 506.375 -74.195 506.375 -66.375 506.375 C-67.08845614 501.38080701 -67.89365518 497.19732283 -69.3125 492.4375 C-70.55614272 488.24316124 -71.71983924 484.04956919 -72.76538086 479.80151367 C-74.17647548 474.18482589 -75.69319098 468.59501709 -77.1875 463 C-77.36618622 462.33071472 -77.54487244 461.66142944 -77.72897339 460.97186279 C-81.3523725 447.40755068 -85.04569221 433.87300825 -89.00952148 420.40380859 C-91.628103 411.50435159 -94.1077915 402.62330989 -96.28515625 393.60546875 C-97.6234797 388.25086929 -99.23845032 382.97645709 -100.8125 377.6875 C-103.32789277 369.21954422 -105.60528474 360.742568 -107.51342773 352.11645508 C-108.36642684 348.33322775 -109.2610415 344.69098246 -110.57957458 341.03497314 C-115.21911746 327.98579962 -115.0534409 315.28889984 -114.93359375 301.57421875 C-114.9293346 299.11945345 -114.92701406 296.66468411 -114.92652893 294.20991516 C-114.92040488 289.1024002 -114.89788976 283.99533096 -114.86206055 278.88793945 C-114.81647883 272.33871734 -114.8020155 265.78989328 -114.79832363 259.24052715 C-114.79390236 254.18856383 -114.77861646 249.136684 -114.7594471 244.08475685 C-114.75057106 241.66819759 -114.74383807 239.25162948 -114.73928642 236.83505821 C-114.73026434 233.47281133 -114.70789926 230.11092801 -114.68139648 226.7487793 C-114.68073181 225.75193619 -114.68006714 224.75509308 -114.67938232 223.7280426 C-114.66441963 222.35568954 -114.66441963 222.35568954 -114.64915466 220.95561218 C-114.64450416 220.1628271 -114.63985365 219.37004202 -114.63506222 218.55323315 C-114.33704853 216.0571255 -113.72297265 214.49274313 -112.375 212.375 C-108.68094568 209.91229712 -106.74222928 210.14514583 -102.375 210.375 C-99.9375 210.875 -99.9375 210.875 -98.375 211.375 C-98.375 212.035 -98.375 212.695 -98.375 213.375 C-96.7295622 215.06262851 -95.06211423 216.7290349 -93.375 218.375 C-93.045 219.035 -92.715 219.695 -92.375 220.375 C-91.715 220.375 -91.055 220.375 -90.375 220.375 C-90.375 221.035 -90.375 221.695 -90.375 222.375 C-80.86933233 231.42928121 -69.96723701 234.73831286 -57.12109375 234.51171875 C-47.03227948 234.0094307 -39.81547693 229.53773838 -31.375 224.375 C-31.375 223.715 -31.375 223.055 -31.375 222.375 C-30.715 222.375 -30.055 222.375 -29.375 222.375 C-27.59828303 220.69540162 -27.59828303 220.69540162 -25.8125 218.5625 C-25.19246094 217.85480469 -24.57242188 217.14710938 -23.93359375 216.41796875 C-22.19075246 214.36226532 -22.19075246 214.36226532 -21.375 211.375 C-20.715 211.375 -20.055 211.375 -19.375 211.375 C-18.0447891 209.86272933 -16.78472409 208.28830976 -15.5625 206.6875 C-12.68233574 202.99631476 -9.78220451 199.59803129 -6.375 196.375 C-4.6708946 194.74663262 -2.99474559 193.08730248 -1.375 191.375 C-1.375 190.715 -1.375 190.055 -1.375 189.375 C-0.715 189.375 -0.055 189.375 0.625 189.375 C2.63945488 187.30850433 2.63945488 187.30850433 4.6875 184.6875 C5.40035156 183.81738281 6.11320312 182.94726562 6.84765625 182.05078125 C8.6592991 179.3233629 9.40534901 177.62154872 9.625 174.375 C7.71042829 170.30653512 6.35224821 168.71168898 2.25 166.8125 C-2.00756537 166.2986559 -3.8057229 167.11155599 -7.375 169.375 C-7.375 170.035 -7.375 170.695 -7.375 171.375 C-7.99375 171.6225 -8.6125 171.87 -9.25 172.125 C-11.72568687 173.58128639 -12.32625002 174.75312506 -13.375 177.375 C-14.035 177.375 -14.695 177.375 -15.375 177.375 C-17.04166667 178.70833333 -17.04166667 178.70833333 -18.375 180.375 C-18.375 181.035 -18.375 181.695 -18.375 182.375 C-18.99375 182.6225 -19.6125 182.87 -20.25 183.125 C-22.72568687 184.58128639 -23.32625002 185.75312506 -24.375 188.375 C-25.035 188.375 -25.695 188.375 -26.375 188.375 C-26.375 189.035 -26.375 189.695 -26.375 190.375 C-27.365 190.705 -28.355 191.035 -29.375 191.375 C-29.375 192.035 -29.375 192.695 -29.375 193.375 C-29.99375 193.6225 -30.6125 193.87 -31.25 194.125 C-33.72568687 195.58128639 -34.32625002 196.75312506 -35.375 199.375 C-36.035 199.375 -36.695 199.375 -37.375 199.375 C-37.375 200.035 -37.375 200.695 -37.375 201.375 C-38.26058594 201.7771875 -38.26058594 201.7771875 -39.1640625 202.1875 C-42.00514097 203.71345027 -44.07042501 205.73085309 -46.3984375 207.9375 C-53.00175221 212.7399107 -61.621271 212.16079673 -69.375 211.375 C-75.52953369 209.4728325 -79.70252591 206.73069138 -83.375 201.375 C-84.035 201.375 -84.695 201.375 -85.375 201.375 C-85.375 200.715 -85.375 200.055 -85.375 199.375 C-87.06305632 197.70622279 -87.06305632 197.70622279 -89.1875 196 C-91.43750857 194.13933718 -93.27850285 192.50627297 -95.01171875 190.1484375 C-95.68654297 189.27058594 -95.68654297 189.27058594 -96.375 188.375 C-97.035 188.375 -97.695 188.375 -98.375 188.375 C-98.375 187.715 -98.375 187.055 -98.375 186.375 C-100.06022729 184.67015534 -100.06022729 184.67015534 -102.1875 182.9375 C-106.19388222 179.55871135 -106.19388222 179.55871135 -108.01171875 177.71484375 C-111.27879689 174.50393314 -115.22302748 175.22288015 -119.5090332 175.21728516 C-120.77026505 175.20966408 -120.77026505 175.20966408 -122.05697632 175.20188904 C-123.88653325 175.1911738 -125.71610338 175.18255816 -127.54567909 175.17576981 C-130.44150812 175.16399857 -133.33718682 175.14454993 -136.23295593 175.12265015 C-144.4676717 175.06097708 -152.70237293 175.00699134 -160.93725586 174.97363281 C-165.9711987 174.95268972 -171.00486905 174.91738739 -176.03865623 174.87287521 C-177.95754984 174.85870997 -179.87649168 174.84999159 -181.79543495 174.84682083 C-184.4815077 174.84191321 -187.16685734 174.81875864 -189.8527832 174.79150391 C-190.64517899 174.79451004 -191.43757477 174.79751617 -192.25398254 174.8006134 C-196.86339517 174.73114173 -199.62434191 174.03594181 -203.375 171.375 C-204.509375 170.983125 -205.64375 170.59125 -206.8125 170.1875 C-211.57921928 168.49025905 -215.81484882 165.90431683 -220.15869141 163.35327148 C-223.43685083 161.44123195 -226.68361014 159.70688052 -230.1875 158.25 C-238.40448547 154.69134272 -244.31178157 150.82829063 -248.3359375 142.56640625 C-250.94777834 134.54432367 -250.64153994 126.29346716 -247.125 118.625 C-246.66609375 117.75359375 -246.2071875 116.8821875 -245.734375 115.984375 C-244.34990587 113.32683081 -243.35058314 110.70579042 -242.375 107.875 C-241.09716249 104.23802535 -239.67716483 100.74052706 -238.05078125 97.24609375 C-234.00255528 88.42775017 -230.34874915 79.4451765 -226.65478516 70.47412109 C-225.42910751 67.50602646 -224.18990241 64.54387689 -222.94921875 61.58203125 C-222.21537202 59.80500686 -221.48226016 58.02767876 -220.75 56.25 C-220.40735107 55.43990479 -220.06470215 54.62980957 -219.71166992 53.79516602 C-217.97006025 49.52022352 -216.79444279 46.07474885 -217.375 41.375 C-219.33045143 37.76312422 -219.33045143 37.76312422 -222.375 35.375 C-225.76798858 34.87770702 -228.9725526 35.01823852 -232.375 35.375 Z M26.625 45.375 C26.625 67.155 26.625 88.935 26.625 111.375 C29.1 110.88 29.1 110.88 31.625 110.375 C31.625 109.715 31.625 109.055 31.625 108.375 C32.470625 108.25125 33.31625 108.1275 34.1875 108 C37.62391034 107.45074835 37.62391034 107.45074835 40.84375 106.3515625 C44.82677345 105.32288909 48.48327386 105.07779584 52.5625 105.125 C53.22701172 105.11726563 53.89152344 105.10953125 54.57617188 105.1015625 C62.38394921 105.13185456 68.96503555 107.42149803 76.08422852 110.3972168 C91.2049247 116.65238528 103.52559971 117.30438531 119 111 C124.96865095 107.30512084 128.29363995 103.70998418 132 97.75 C132.35819824 97.17523926 132.71639648 96.60047852 133.08544922 96.00830078 C134.74323531 93.23723325 135.625 91.66194001 135.625 88.375 C136.285 88.375 136.945 88.375 137.625 88.375 C138.02332031 87.62734375 138.42164063 86.8796875 138.83203125 86.109375 C139.36183594 85.12453125 139.89164062 84.1396875 140.4375 83.125 C140.95957031 82.15046875 141.48164063 81.1759375 142.01953125 80.171875 C143.625 77.375 143.625 77.375 145.32421875 75.140625 C146.82271276 73.47214128 146.82271276 73.47214128 146.625 71.375 C147.285 71.375 147.945 71.375 148.625 71.375 C151.65017909 68.31941577 151.65017909 68.31941577 152.625 64.375 C153.264375 64.106875 153.90375 63.83875 154.5625 63.5625 C156.95631686 62.48832248 156.95631686 62.48832248 157.625 59.375 C150.26273691 55.31705971 143.06848402 52.12480625 134.625 54.375 C130.85184538 56.50669004 127.59584381 59.25090094 124.33984375 62.08984375 C121.625 64.375 121.625 64.375 118.625 65.375 C118.625 66.035 118.625 66.695 118.625 67.375 C117.696875 67.519375 116.76875 67.66375 115.8125 67.8125 C112.61774889 68.29600111 112.61774889 68.29600111 109.625 69.375 C82.7950594 71.58264115 82.7950594 71.58264115 71.625 63.375 C69.64699265 62.0607535 67.66778093 60.74831821 65.6875 59.4375 C64.70394531 58.76589844 63.72039062 58.09429687 62.70703125 57.40234375 C50.21919741 49.18791312 41.63706409 46.62600534 26.625 45.375 Z M-176.75390625 102.10546875 C-177.55634766 103.22888672 -177.55634766 103.22888672 -178.375 104.375 C-179.03822266 105.29732422 -179.03822266 105.29732422 -179.71484375 106.23828125 C-184.43523818 114.08320722 -184.1472049 124.2178421 -182.1875 132.875 C-180.88282041 137.35160702 -179.42234627 140.83614627 -176.375 144.375 C-175.715 144.375 -175.055 144.375 -174.375 144.375 C-174.106875 145.014375 -173.83875 145.65375 -173.5625 146.3125 C-172.48832248 148.70631686 -172.48832248 148.70631686 -169.375 149.375 C-169.375 150.035 -169.375 150.695 -169.375 151.375 C-159.35745943 156.10503602 -149.86477196 158.40125977 -138.7890625 155.7578125 C-136.44330377 154.95539088 -136.44330377 154.95539088 -133.375 153.375 C-132.55 152.983125 -131.725 152.59125 -130.875 152.1875 C-130.38 151.919375 -129.885 151.65125 -129.375 151.375 C-129.375 150.715 -129.375 150.055 -129.375 149.375 C-128.78976563 149.13394531 -128.20453125 148.89289063 -127.6015625 148.64453125 C-124.94778826 147.13141436 -123.59866718 145.48531271 -121.75 143.0625 C-121.15960938 142.30324219 -120.56921875 141.54398438 -119.9609375 140.76171875 C-114.99873887 133.29397648 -114.37425071 123.258725 -116 114.5625 C-118.99520685 103.99118169 -125.75057775 96.22892503 -135.3125 90.875 C-150.32352802 85.02859961 -166.86694155 89.71079159 -176.75390625 102.10546875 Z M6.625 210.375 C6.625 211.035 6.625 211.695 6.625 212.375 C5.635 212.705 4.645 213.035 3.625 213.375 C1.90322114 215.29552654 1.90322114 215.29552654 0.25 217.625 C-1.75558914 220.3540665 -3.30956939 222.32765513 -6.07421875 224.328125 C-9.85801264 229.33892167 -8.97609844 234.78657196 -8.8125 240.875 C-8.80669922 242.09832031 -8.80089844 243.32164062 -8.79492188 244.58203125 C-8.91151248 253.77117023 -8.91151248 253.77117023 -4.375 261.375 C-1.68660615 261.64491906 0.91641936 261.46237357 3.625 261.375 C4.285 260.055 4.945 258.735 5.625 257.375 C6.285 257.375 6.945 257.375 7.625 257.375 C7.625 241.865 7.625 226.355 7.625 210.375 C7.295 210.375 6.965 210.375 6.625 210.375 Z " fill="#0D0D0D" transform="translate(291.375,-0.375)"/>
<path d="M0 0 C0.33 0 0.66 0 1 0 C1.09343242 18.68886903 1.16397383 37.37769067 1.20724869 56.0667448 C1.22787585 64.74436436 1.25599932 73.42183881 1.30175781 82.09936523 C1.34162095 89.66251513 1.3674317 97.22555995 1.37635398 104.78881198 C1.38156965 108.79371925 1.39383129 112.79832589 1.42292023 116.80313683 C1.45008126 120.57308771 1.45844374 124.34261429 1.45243073 128.11265373 C1.45353067 129.49576371 1.46148091 130.87888796 1.4768219 132.2619133 C1.49675608 134.15181444 1.48954683 136.04194352 1.48101807 137.93193054 C1.48470524 138.98922709 1.48839241 140.04652365 1.49219131 141.13585949 C0.88161726 144.6888882 -0.57706486 146.39157606 -3 149 C-3.99 148.67 -4.98 148.34 -6 148 C-4.625 146.5 -4.625 146.5 -3 145 C-2.34 145 -1.68 145 -1 145 C-0.67 97.15 -0.34 49.3 0 0 Z " fill="#3A3A3A" transform="translate(264,19)"/>
<path d="M0 0 C0.33 0 0.66 0 1 0 C1.09899561 6.03225939 1.17152907 12.06404427 1.21972656 18.09692383 C1.23982199 20.14843993 1.26710324 22.19989889 1.30175781 24.2512207 C1.35036669 27.20278025 1.37298952 30.15358148 1.390625 33.10546875 C1.41127014 34.02023483 1.43191528 34.93500092 1.45318604 35.87748718 C1.45471208 40.2239976 1.39849227 42.38616236 -1.02441406 46.1184082 C-2.0023291 47.04979614 -2.0023291 47.04979614 -3 48 C-3.99 47.67 -4.98 47.34 -6 47 C-4.625 45.5 -4.625 45.5 -3 44 C-2.34 44 -1.68 44 -1 44 C-0.67 29.48 -0.34 14.96 0 0 Z " fill="#363636" transform="translate(264,120)"/>
<path d="M0 0 C0.66 0.99 1.32 1.98 2 3 C1.5153125 3.4125 1.030625 3.825 0.53125 4.25 C-4.54250509 8.62123516 -9.32152134 13.20953648 -14 18 C-14.99 17.67 -15.98 17.34 -17 17 C-15.04761147 14.99387601 -13.08862178 12.99507567 -11.125 11 C-10.29162109 10.14148438 -10.29162109 10.14148438 -9.44140625 9.265625 C-7.99865596 7.80549218 -6.5025626 6.39850702 -5 5 C-4.34 5 -3.68 5 -3 5 C-2.690625 4.360625 -2.38125 3.72125 -2.0625 3.0625 C-1 1 -1 1 0 0 Z " fill="#5D5D5D" transform="translate(255,170)"/>
<path d="M0 0 C0 3 0 3 -1.53125 4.82421875 C-2.1809375 5.43910156 -2.830625 6.05398437 -3.5 6.6875 C-4.1496875 7.31011719 -4.799375 7.93273437 -5.46875 8.57421875 C-5.9740625 9.04472656 -6.479375 9.51523437 -7 10 C-7 7 -7 7 -6 5 C-5.34 5 -4.68 5 -4 5 C-3.566875 4.0409375 -3.566875 4.0409375 -3.125 3.0625 C-2 1 -2 1 0 0 Z " fill="#4C4C4C" transform="translate(47,20)"/>
<path d="M0 0 C0.33 1.32 0.66 2.64 1 4 C-1.31 5.32 -3.62 6.64 -6 8 C-5.67 7.01 -5.34 6.02 -5 5 C-4.34 5 -3.68 5 -3 5 C-2.5359375 4.0409375 -2.5359375 4.0409375 -2.0625 3.0625 C-1 1 -1 1 0 0 Z " fill="#747474" transform="translate(285,195)"/>
<path d="M0 0 C0.33 0.99 0.66 1.98 1 3 C-0.9375 5.6875 -0.9375 5.6875 -3 8 C-3.99 7.67 -4.98 7.34 -6 7 C-4.625 5.5 -4.625 5.5 -3 4 C-2.34 4 -1.68 4 -1 4 C-0.67 2.68 -0.34 1.36 0 0 Z " fill="#575757" transform="translate(264,160)"/>
<path d="M0 0 C0 3.26795703 -0.57850516 5.0821948 -2 8 C-2.99 8.66 -3.98 9.32 -5 10 C-3.66511872 6.40608886 -2.03977277 3.24509304 0 0 Z " fill="#696969" transform="translate(435,76)"/>
</svg>
